<?xml version="1.0" standalone="no"?>
<!DOCTYPE svg PUBLIC "-//W3C//DTD SVG 20010904//EN"
 "http://www.w3.org/TR/2001/REC-SVG-20010904/DTD/svg10.dtd">
<svg version="1.0" xmlns="http://www.w3.org/2000/svg"
 width="700.000000pt" height="700.000000pt" viewBox="0 0 700.000000 700.000000"
 preserveAspectRatio="xMidYMid meet">
<metadata>
Created by potrace 1.14, written by Peter Selinger 2001-2017
</metadata>
<g transform="translate(0.000000,700.000000) scale(0.100000,-0.100000)"
fill="#000000" stroke="none">
<path d="M5270 6311 c-75 -18 -209 -80 -239 -110 -12 -12 -21 -18 -21 -13 0 4
-30 -24 -65 -62 -95 -99 -162 -227 -179 -341 -19 -125 -3 -105 -159 -201 -78
-48 -155 -95 -172 -104 -282 -162 -377 -214 -520 -284 -168 -82 -191 -93 -290
-136 -90 -40 -300 -117 -376 -140 -73 -21 -252 -69 -257 -69 -1 0 -26 -4 -55
-10 -28 -6 -68 -13 -87 -16 -19 -2 -60 -9 -90 -14 -33 -6 -480 -10 -1111 -10
-969 -1 -1059 -3 -1090 -18 -47 -23 -74 -56 -87 -103 -2 -8 -5 -544 -6 -1191
l-1 -1175 27 -41 c47 -71 59 -73 377 -73 l282 0 -1 -717 c-1 -690 -1 -717 18
-742 34 -47 57 -49 527 -47 484 1 470 -1 500 63 14 28 16 121 15 710 0 373 -1
691 0 707 l0 28 278 -5 c299 -5 338 -10 591 -73 358 -88 752 -260 1226 -532
159 -91 431 -255 444 -267 1 -2 9 -37 16 -77 18 -101 48 -176 106 -263 65 -97
144 -166 254 -221 191 -95 393 -97 598 -7 31 14 57 30 57 34 0 5 7 9 15 9 28
0 180 161 218 230 35 65 63 139 74 195 4 17 7 367 8 780 3 705 4 750 20 760
302 174 457 427 458 745 0 176 -45 326 -141 467 -73 107 -157 181 -316 278
-15 9 -16 75 -17 750 0 814 1 800 -64 940 -129 282 -457 439 -765 366z"/>
</g>
</svg>
